# xmcd
#
# Track frame offsets: 
#        150
#        6850
#        12294
#        29475
#        42235
#        54316
#        68430
#        76921
#        83237
#        98320
#        110905
#        114109
#        117548
#        120901
#        128799
#        138439
#        146625
#
# Disc length: 2221 seconds
#
# Revision: 2
# Processed by: cddbd v1.5.2PL0 Copyright (c) Steve Scherf et al.
# Submitted via: ExactAudioCopy v0.99pb4
#
DISCID=d408ab11
DTITLE=Allen, Terry - Amerasia
DYEAR=1987
DGENRE=Country
TTITLE0=Amerasia
TTITLE1=My Country 'Tis Of Thee
TTITLE2=The Burden
TTITLE3=Back Out Of The World
TTITLE4=Swanlake
TTITLE5=Display Woman - Displaced Man
TTITLE6=Lucy's Tiger Den
TTITLE7=Chop Sticks - Thai Sticks
TTITLE8=Nobody's Goin' Home (Friendship Highway)
TTITLE9=Metrapab
TTITLE10=Church Walking
TTITLE11=Food Stall
TTITLE12=Canal
TTITLE13=Sawahdi (Christmas Song)
TTITLE14=Orphans
TTITLE15=Pataya
TTITLE16=Let Freedom Ring
EXTD=
EXTT0=
EXTT1=
EXTT2=
EXTT3=
EXTT4=
EXTT5=
EXTT6=
EXTT7=
EXTT8=
EXTT9=
EXTT10=
EXTT11=
EXTT12=
EXTT13=
EXTT14=
EXTT15=
EXTT16=
PLAYORDER=
